# xmcd CD database file
#
# Track frame offsets:
#	200
#	81432
#	127062
#	191795
#	222687
#	261087
#
# Disc length: 4044 seconds
#
# Revision: 0
# Processed by: cddbd v1.5.2PL0 Copyright (c) Steve Scherf et al.
# Submitted via: CDex 1.51
#
DISCID=610fca06
DTITLE=Ramsey Lewis - Live! at Blues Alley
DYEAR=1991
DGENRE=Jazz
TTITLE0=Black Orpheus Medley
TTITLE1=Willow Weep for Me
TTITLE2=Brazilca
TTITLE3=Body and Soul
TTITLE4=Close Your Eyes and Remember
TTITLE5=The In Crowd
EXTD=YEAR: 1991
EXTT0=
EXTT1=
EXTT2=
EXTT3=
EXTT4=
EXTT5=
PLAYORDER=
